{
    "asset" : {
        "generator" : "Khronos glTF Blender I/O v1.4.39",
        "version" : "2.0"
    },
    "scene" : 0,
    "scenes" : [
        {
            "name" : "Scene",
            "nodes" : [
                0
            ]
        }
    ],
    "nodes" : [
        {
            "mesh" : 0,
            "name" : "Mint",
            "rotation" : [
                0.7071068286895752,
                0,
                0,
                0.7071068286895752
            ],
            "translation" : [
                0,
                -0.04916456341743469,
                -0.0039384616538882256
            ]
        }
    ],
    "materials" : [
        {
            "doubleSided" : true,
            "name" : "Mint",
            "pbrMetallicRoughness" : {
                "baseColorFactor" : [
                    0.3389955461025238,
                    0.8000000715255737,
                    0.1477242261171341,
                    1
                ],
                "metallicFactor" : 0,
                "roughnessFactor" : 0.5
            }
        }
    ],
    "meshes" : [
        {
            "name" : "Circle.003",
            "primitives" : [
                {
                    "attributes" : {
                        "POSITION" : 0,
                        "NORMAL" : 1,
                        "TEXCOORD_0" : 2
                    },
                    "indices" : 3,
                    "material" : 0
                }
            ]
        }
    ],
    "accessors" : [
        {
            "bufferView" : 0,
            "componentType" : 5126,
            "count" : 150,
            "max" : [
                0.22295798361301422,
                0.017965301871299744,
                0.3416031301021576
            ],
            "min" : [
                -0.22295798361301422,
                -0.058437053114175797,
                -0.39860495924949646
            ],
            "type" : "VEC3"
        },
        {
            "bufferView" : 1,
            "componentType" : 5126,
            "count" : 150,
            "type" : "VEC3"
        },
        {
            "bufferView" : 2,
            "componentType" : 5126,
            "count" : 150,
            "type" : "VEC2"
        },
        {
            "bufferView" : 3,
            "componentType" : 5123,
            "count" : 522,
            "type" : "SCALAR"
        }
    ],
    "bufferViews" : [
        {
            "buffer" : 0,
            "byteLength" : 1800,
            "byteOffset" : 0
        },
        {
            "buffer" : 0,
            "byteLength" : 1800,
            "byteOffset" : 1800
        },
        {
            "buffer" : 0,
            "byteLength" : 1200,
            "byteOffset" : 3600
        },
        {
            "buffer" : 0,
            "byteLength" : 1044,
            "byteOffset" : 4800
        }
    ],
    "buffers" : [
        {
            "byteLength" : 5844,
            "uri" : "data:application/octet-stream;base64,"
        }
    ]
}
