{
    "asset" : {
        "generator" : "Khronos glTF Blender I/O v1.4.39",
        "version" : "2.0"
    },
    "scene" : 0,
    "scenes" : [
        {
            "name" : "Scene",
            "nodes" : [
                0
            ]
        }
    ],
    "nodes" : [
        {
            "mesh" : 0,
            "name" : "RocketGlass",
            "translation" : [
                3.7011312087997794e-05,
                2.4760279655456543,
                0.13660860061645508
            ]
        }
    ],
    "meshes" : [
        {
            "name" : "Cylinder.026",
            "primitives" : [
                {
                    "attributes" : {
                        "POSITION" : 0,
                        "NORMAL" : 1,
                        "TEXCOORD_0" : 2
                    },
                    "indices" : 3
                },
                {
                    "attributes" : {
                        "POSITION" : 4,
                        "NORMAL" : 5,
                        "TEXCOORD_0" : 6
                    },
                    "indices" : 7
                }
            ]
        }
    ],
    "accessors" : [
        {
            "bufferView" : 0,
            "componentType" : 5126,
            "count" : 1364,
            "max" : [
                1.3360787630081177,
                2.3564674854278564,
                0.8387113809585571
            ],
            "min" : [
                -1.33615243434906,
                -2.4749104976654053,
                -1.6794217824935913
            ],
            "type" : "VEC3"
        },
        {
            "bufferView" : 1,
            "componentType" : 5126,
            "count" : 1364,
            "type" : "VEC3"
        },
        {
            "bufferView" : 2,
            "componentType" : 5126,
            "count" : 1364,
            "type" : "VEC2"
        },
        {
            "bufferView" : 3,
            "componentType" : 5123,
            "count" : 5124,
            "type" : "SCALAR"
        },
        {
            "bufferView" : 4,
            "componentType" : 5126,
            "count" : 96,
            "max" : [
                0.3215847313404083,
                0.6730681657791138,
                0.7868692278862
            ],
            "min" : [
                -0.321658730506897,
                0.02982458472251892,
                0.7154769897460938
            ],
            "type" : "VEC3"
        },
        {
            "bufferView" : 5,
            "componentType" : 5126,
            "count" : 96,
            "type" : "VEC3"
        },
        {
            "bufferView" : 6,
            "componentType" : 5126,
            "count" : 96,
            "type" : "VEC2"
        },
        {
            "bufferView" : 7,
            "componentType" : 5123,
            "count" : 180,
            "type" : "SCALAR"
        }
    ],
    "bufferViews" : [
        {
            "buffer" : 0,
            "byteLength" : 16368,
            "byteOffset" : 0
        },
        {
            "buffer" : 0,
            "byteLength" : 16368,
            "byteOffset" : 16368
        },
        {
            "buffer" : 0,
            "byteLength" : 10912,
            "byteOffset" : 32736
        },
        {
            "buffer" : 0,
            "byteLength" : 10248,
            "byteOffset" : 43648
        },
        {
            "buffer" : 0,
            "byteLength" : 1152,
            "byteOffset" : 53896
        },
        {
            "buffer" : 0,
            "byteLength" : 1152,
            "byteOffset" : 55048
        },
        {
            "buffer" : 0,
            "byteLength" : 768,
            "byteOffset" : 56200
        },
        {
            "buffer" : 0,
            "byteLength" : 360,
            "byteOffset" : 56968
        }
    ],
    "buffers" : [
        {
            "byteLength" : 57328,
            "uri" : "data:application/octet-stream;base64,"
        }
    ]
}
