{
    "asset" : {
        "generator" : "Khronos glTF Blender I/O v1.0.5",
        "version" : "2.0"
    },
    "scene" : 0,
    "scenes" : [
        {
            "name" : "Scene",
            "nodes" : [
                0,
                1,
                2,
                3
            ]
        }
    ],
    "nodes" : [
        {
            "mesh" : 0,
            "name" : "Gem4",
            "translation" : [
                5.053200721740723,
                0.11666814237833023,
                0
            ]
        },
        {
            "mesh" : 1,
            "name" : "Gem3",
            "rotation" : [
                0.7071067690849304,
                0,
                0,
                0.7071067690849304
            ],
            "translation" : [
                3.2910966873168945,
                0,
                0
            ]
        },
        {
            "mesh" : 2,
            "name" : "Gem2",
            "scale" : [
                0.7559837102890015,
                0.7559837102890015,
                0.7559837102890015
            ],
            "translation" : [
                1.470502257347107,
                0,
                0
            ]
        },
        {
            "mesh" : 3,
            "name" : "Gem1",
            "scale" : [
                0.6816626191139221,
                0.6816626191139221,
                0.6816626191139221
            ],
            "translation" : [
                -0.4365290403366089,
                0,
                0
            ]
        }
    ],
    "meshes" : [
        {
            "name" : "Icosphere.002",
            "primitives" : [
                {
                    "attributes" : {
                        "POSITION" : 0,
                        "NORMAL" : 1,
                        "TEXCOORD_0" : 2
                    },
                    "indices" : 3
                }
            ]
        },
        {
            "name" : "Circle",
            "primitives" : [
                {
                    "attributes" : {
                        "POSITION" : 4,
                        "NORMAL" : 5,
                        "TEXCOORD_0" : 6
                    },
                    "indices" : 7
                }
            ]
        },
        {
            "name" : "Cube.004",
            "primitives" : [
                {
                    "attributes" : {
                        "POSITION" : 8,
                        "NORMAL" : 9,
                        "TEXCOORD_0" : 10
                    },
                    "indices" : 11
                }
            ]
        },
        {
            "name" : "Cylinder.001",
            "primitives" : [
                {
                    "attributes" : {
                        "POSITION" : 12,
                        "NORMAL" : 13,
                        "TEXCOORD_0" : 14
                    },
                    "indices" : 15
                }
            ]
        }
    ],
    "accessors" : [
        {
            "bufferView" : 0,
            "componentType" : 5126,
            "count" : 40,
            "max" : [
                0.7742661833763123,
                0.5728528499603271,
                0.7363633513450623
            ],
            "min" : [
                -0.6263901591300964,
                -0.8656580448150635,
                -0.7363633513450623
            ],
            "type" : "VEC3"
        },
        {
            "bufferView" : 1,
            "componentType" : 5126,
            "count" : 40,
            "type" : "VEC3"
        },
        {
            "bufferView" : 2,
            "componentType" : 5126,
            "count" : 40,
            "type" : "VEC2"
        },
        {
            "bufferView" : 3,
            "componentType" : 5123,
            "count" : 54,
            "type" : "SCALAR"
        },
        {
            "bufferView" : 4,
            "componentType" : 5126,
            "count" : 84,
            "max" : [
                0.5728147029876709,
                0.5352674126625061,
                0.6614294052124023
            ],
            "min" : [
                -0.5728147029876709,
                -0.24910803139209747,
                -0.6614294052124023
            ],
            "type" : "VEC3"
        },
        {
            "bufferView" : 5,
            "componentType" : 5126,
            "count" : 84,
            "type" : "VEC3"
        },
        {
            "bufferView" : 6,
            "componentType" : 5126,
            "count" : 84,
            "type" : "VEC2"
        },
        {
            "bufferView" : 7,
            "componentType" : 5123,
            "count" : 132,
            "type" : "SCALAR"
        },
        {
            "bufferView" : 8,
            "componentType" : 5126,
            "count" : 88,
            "max" : [
                0.6543167233467102,
                0.8241633176803589,
                0.2578396797180176
            ],
            "min" : [
                -0.654317319393158,
                -0.7700598239898682,
                -0.2578396797180176
            ],
            "type" : "VEC3"
        },
        {
            "bufferView" : 9,
            "componentType" : 5126,
            "count" : 88,
            "type" : "VEC3"
        },
        {
            "bufferView" : 10,
            "componentType" : 5126,
            "count" : 88,
            "type" : "VEC2"
        },
        {
            "bufferView" : 11,
            "componentType" : 5123,
            "count" : 132,
            "type" : "SCALAR"
        },
        {
            "bufferView" : 12,
            "componentType" : 5126,
            "count" : 42,
            "max" : [
                0.653094470500946,
                0.6698900461196899,
                0.6035500764846802
            ],
            "min" : [
                -0.653094470500946,
                -0.6698900461196899,
                -0.6698900461196899
            ],
            "type" : "VEC3"
        },
        {
            "bufferView" : 13,
            "componentType" : 5126,
            "count" : 42,
            "type" : "VEC3"
        },
        {
            "bufferView" : 14,
            "componentType" : 5126,
            "count" : 42,
            "type" : "VEC2"
        },
        {
            "bufferView" : 15,
            "componentType" : 5123,
            "count" : 42,
            "type" : "SCALAR"
        }
    ],
    "bufferViews" : [
        {
            "buffer" : 0,
            "byteLength" : 480,
            "byteOffset" : 0
        },
        {
            "buffer" : 0,
            "byteLength" : 480,
            "byteOffset" : 480
        },
        {
            "buffer" : 0,
            "byteLength" : 320,
            "byteOffset" : 960
        },
        {
            "buffer" : 0,
            "byteLength" : 108,
            "byteOffset" : 1280
        },
        {
            "buffer" : 0,
            "byteLength" : 1008,
            "byteOffset" : 1388
        },
        {
            "buffer" : 0,
            "byteLength" : 1008,
            "byteOffset" : 2396
        },
        {
            "buffer" : 0,
            "byteLength" : 672,
            "byteOffset" : 3404
        },
        {
            "buffer" : 0,
            "byteLength" : 264,
            "byteOffset" : 4076
        },
        {
            "buffer" : 0,
            "byteLength" : 1056,
            "byteOffset" : 4340
        },
        {
            "buffer" : 0,
            "byteLength" : 1056,
            "byteOffset" : 5396
        },
        {
            "buffer" : 0,
            "byteLength" : 704,
            "byteOffset" : 6452
        },
        {
            "buffer" : 0,
            "byteLength" : 264,
            "byteOffset" : 7156
        },
        {
            "buffer" : 0,
            "byteLength" : 504,
            "byteOffset" : 7420
        },
        {
            "buffer" : 0,
            "byteLength" : 504,
            "byteOffset" : 7924
        },
        {
            "buffer" : 0,
            "byteLength" : 336,
            "byteOffset" : 8428
        },
        {
            "buffer" : 0,
            "byteLength" : 84,
            "byteOffset" : 8764
        }
    ],
    "buffers" : [
        {
            "byteLength" : 8848,
            "uri" : "data:application/octet-stream;base64,"
        }
    ]
}
