{
    "asset" : {
        "generator" : "Khronos glTF Blender I/O v1.3.48",
        "version" : "2.0"
    },
    "scene" : 0,
    "scenes" : [
        {
            "name" : "Scene",
            "nodes" : [
                6,
                7,
                8
            ]
        }
    ],
    "nodes" : [
        {
            "mesh" : 0,
            "name" : "Collision -col"
        },
        {
            "mesh" : 1,
            "name" : "Grating -nocol",
            "translation" : [
                0,
                -1.8709932565689087,
                0
            ]
        },
        {
            "mesh" : 2,
            "name" : "Grating2 -nocol"
        },
        {
            "mesh" : 3,
            "name" : "Blades -nocol"
        },
        {
            "name" : "Empty -noimp",
            "rotation" : [
                0,
                0.2588191032409668,
                0,
                0.9659258127212524
            ]
        },
        {
            "children" : [
                3,
                4
            ],
            "mesh" : 4,
            "name" : "Motor -nocol",
            "translation" : [
                0,
                0.6000000238418579,
                0
            ]
        },
        {
            "children" : [
                0,
                1,
                2,
                5
            ],
            "mesh" : 5,
            "name" : "JumpPad -nocol"
        },
        {
            "mesh" : 6,
            "name" : "Cube.001 -noimp",
            "translation" : [
                -1.1789227724075317,
                0.9433193206787109,
                0
            ]
        },
        {
            "mesh" : 7,
            "name" : "Cube.001 -noimp.001",
            "translation" : [
                -1.1789227724075317,
                -0.9276739358901978,
                0
            ]
        }
    ],
    "materials" : [
        {
            "doubleSided" : true,
            "emissiveFactor" : [
                0,
                0,
                0
            ],
            "name" : "Metal.001",
            "pbrMetallicRoughness" : {
                "baseColorFactor" : [
                    0.5070686936378479,
                    0.5070686936378479,
                    0.5070686936378479,
                    1
                ],
                "metallicFactor" : 1,
                "roughnessFactor" : 0.36666667461395264
            }
        }
    ],
    "meshes" : [
        {
            "name" : "Cube.005",
            "primitives" : [
                {
                    "attributes" : {
                        "POSITION" : 0,
                        "NORMAL" : 1,
                        "TEXCOORD_0" : 2
                    },
                    "indices" : 3
                }
            ]
        },
        {
            "name" : "Cube.003",
            "primitives" : [
                {
                    "attributes" : {
                        "POSITION" : 4,
                        "NORMAL" : 5,
                        "TEXCOORD_0" : 6
                    },
                    "indices" : 7,
                    "material" : 0
                }
            ]
        },
        {
            "name" : "Cube.003",
            "primitives" : [
                {
                    "attributes" : {
                        "POSITION" : 8,
                        "NORMAL" : 9,
                        "TEXCOORD_0" : 10
                    },
                    "indices" : 7,
                    "material" : 0
                }
            ]
        },
        {
            "name" : "Cube.004",
            "primitives" : [
                {
                    "attributes" : {
                        "POSITION" : 11,
                        "NORMAL" : 12,
                        "TEXCOORD_0" : 13
                    },
                    "indices" : 14,
                    "material" : 0
                }
            ]
        },
        {
            "name" : "Sphere",
            "primitives" : [
                {
                    "attributes" : {
                        "POSITION" : 15,
                        "NORMAL" : 16,
                        "TEXCOORD_0" : 17
                    },
                    "indices" : 18,
                    "material" : 0
                }
            ]
        },
        {
            "name" : "Cube.038",
            "primitives" : [
                {
                    "attributes" : {
                        "POSITION" : 19,
                        "NORMAL" : 20,
                        "TEXCOORD_0" : 21
                    },
                    "indices" : 22,
                    "material" : 0
                }
            ]
        },
        {
            "name" : "Cube.002",
            "primitives" : [
                {
                    "attributes" : {
                        "POSITION" : 23,
                        "NORMAL" : 24,
                        "TEXCOORD_0" : 25
                    },
                    "indices" : 26
                }
            ]
        },
        {
            "name" : "Cube.002",
            "primitives" : [
                {
                    "attributes" : {
                        "POSITION" : 27,
                        "NORMAL" : 28,
                        "TEXCOORD_0" : 29
                    },
                    "indices" : 26
                }
            ]
        }
    ],
    "accessors" : [
        {
            "bufferView" : 0,
            "componentType" : 5126,
            "count" : 24,
            "max" : [
                1,
                1,
                1
            ],
            "min" : [
                -1,
                -1,
                -1
            ],
            "type" : "VEC3"
        },
        {
            "bufferView" : 1,
            "componentType" : 5126,
            "count" : 24,
            "type" : "VEC3"
        },
        {
            "bufferView" : 2,
            "componentType" : 5126,
            "count" : 24,
            "type" : "VEC2"
        },
        {
            "bufferView" : 3,
            "componentType" : 5123,
            "count" : 36,
            "type" : "SCALAR"
        },
        {
            "bufferView" : 4,
            "componentType" : 5126,
            "count" : 892,
            "max" : [
                0.9500000476837158,
                0.9584450125694275,
                0.9384341239929199
            ],
            "min" : [
                -0.9500000476837158,
                0.9153863787651062,
                -0.9384341239929199
            ],
            "type" : "VEC3"
        },
        {
            "bufferView" : 5,
            "componentType" : 5126,
            "count" : 892,
            "type" : "VEC3"
        },
        {
            "bufferView" : 6,
            "componentType" : 5126,
            "count" : 892,
            "type" : "VEC2"
        },
        {
            "bufferView" : 7,
            "componentType" : 5123,
            "count" : 1332,
            "type" : "SCALAR"
        },
        {
            "bufferView" : 8,
            "componentType" : 5126,
            "count" : 892,
            "max" : [
                0.9500000476837158,
                0.9584450125694275,
                0.9384341239929199
            ],
            "min" : [
                -0.9500000476837158,
                0.9153863787651062,
                -0.9384341239929199
            ],
            "type" : "VEC3"
        },
        {
            "bufferView" : 9,
            "componentType" : 5126,
            "count" : 892,
            "type" : "VEC3"
        },
        {
            "bufferView" : 10,
            "componentType" : 5126,
            "count" : 892,
            "type" : "VEC2"
        },
        {
            "bufferView" : 11,
            "componentType" : 5126,
            "count" : 1056,
            "max" : [
                0.9362267255783081,
                0.06938020139932632,
                0.9362267851829529
            ],
            "min" : [
                -0.9362267851829529,
                -0.06938020139932632,
                -0.9362267851829529
            ],
            "type" : "VEC3"
        },
        {
            "bufferView" : 12,
            "componentType" : 5126,
            "count" : 1056,
            "type" : "VEC3"
        },
        {
            "bufferView" : 13,
            "componentType" : 5126,
            "count" : 1056,
            "type" : "VEC2"
        },
        {
            "bufferView" : 14,
            "componentType" : 5123,
            "count" : 3312,
            "type" : "SCALAR"
        },
        {
            "bufferView" : 15,
            "componentType" : 5126,
            "count" : 317,
            "max" : [
                0.30907875299453735,
                0.244583860039711,
                0.9610308408737183
            ],
            "min" : [
                -0.309078574180603,
                -1.0676286220550537,
                -0.9610289931297302
            ],
            "type" : "VEC3"
        },
        {
            "bufferView" : 16,
            "componentType" : 5126,
            "count" : 317,
            "type" : "VEC3"
        },
        {
            "bufferView" : 17,
            "componentType" : 5126,
            "count" : 317,
            "type" : "VEC2"
        },
        {
            "bufferView" : 18,
            "componentType" : 5123,
            "count" : 1098,
            "type" : "SCALAR"
        },
        {
            "bufferView" : 19,
            "componentType" : 5126,
            "count" : 80,
            "max" : [
                1,
                1,
                1
            ],
            "min" : [
                -1,
                -1,
                -1
            ],
            "type" : "VEC3"
        },
        {
            "bufferView" : 20,
            "componentType" : 5126,
            "count" : 80,
            "type" : "VEC3"
        },
        {
            "bufferView" : 21,
            "componentType" : 5126,
            "count" : 80,
            "type" : "VEC2"
        },
        {
            "bufferView" : 22,
            "componentType" : 5123,
            "count" : 144,
            "type" : "SCALAR"
        },
        {
            "bufferView" : 23,
            "componentType" : 5126,
            "count" : 912,
            "max" : [
                2.6166703701019287,
                0.015125647187232971,
                0.9384341239929199
            ],
            "min" : [
                -0.2586694657802582,
                -0.027932938188314438,
                -0.9384341239929199
            ],
            "type" : "VEC3"
        },
        {
            "bufferView" : 24,
            "componentType" : 5126,
            "count" : 912,
            "type" : "VEC3"
        },
        {
            "bufferView" : 25,
            "componentType" : 5126,
            "count" : 912,
            "type" : "VEC2"
        },
        {
            "bufferView" : 26,
            "componentType" : 5123,
            "count" : 1368,
            "type" : "SCALAR"
        },
        {
            "bufferView" : 27,
            "componentType" : 5126,
            "count" : 912,
            "max" : [
                2.6166703701019287,
                0.015125647187232971,
                0.9384341239929199
            ],
            "min" : [
                -0.2586694657802582,
                -0.027932938188314438,
                -0.9384341239929199
            ],
            "type" : "VEC3"
        },
        {
            "bufferView" : 28,
            "componentType" : 5126,
            "count" : 912,
            "type" : "VEC3"
        },
        {
            "bufferView" : 29,
            "componentType" : 5126,
            "count" : 912,
            "type" : "VEC2"
        }
    ],
    "bufferViews" : [
        {
            "buffer" : 0,
            "byteLength" : 288,
            "byteOffset" : 0
        },
        {
            "buffer" : 0,
            "byteLength" : 288,
            "byteOffset" : 288
        },
        {
            "buffer" : 0,
            "byteLength" : 192,
            "byteOffset" : 576
        },
        {
            "buffer" : 0,
            "byteLength" : 72,
            "byteOffset" : 768
        },
        {
            "buffer" : 0,
            "byteLength" : 10704,
            "byteOffset" : 840
        },
        {
            "buffer" : 0,
            "byteLength" : 10704,
            "byteOffset" : 11544
        },
        {
            "buffer" : 0,
            "byteLength" : 7136,
            "byteOffset" : 22248
        },
        {
            "buffer" : 0,
            "byteLength" : 2664,
            "byteOffset" : 29384
        },
        {
            "buffer" : 0,
            "byteLength" : 10704,
            "byteOffset" : 32048
        },
        {
            "buffer" : 0,
            "byteLength" : 10704,
            "byteOffset" : 42752
        },
        {
            "buffer" : 0,
            "byteLength" : 7136,
            "byteOffset" : 53456
        },
        {
            "buffer" : 0,
            "byteLength" : 12672,
            "byteOffset" : 60592
        },
        {
            "buffer" : 0,
            "byteLength" : 12672,
            "byteOffset" : 73264
        },
        {
            "buffer" : 0,
            "byteLength" : 8448,
            "byteOffset" : 85936
        },
        {
            "buffer" : 0,
            "byteLength" : 6624,
            "byteOffset" : 94384
        },
        {
            "buffer" : 0,
            "byteLength" : 3804,
            "byteOffset" : 101008
        },
        {
            "buffer" : 0,
            "byteLength" : 3804,
            "byteOffset" : 104812
        },
        {
            "buffer" : 0,
            "byteLength" : 2536,
            "byteOffset" : 108616
        },
        {
            "buffer" : 0,
            "byteLength" : 2196,
            "byteOffset" : 111152
        },
        {
            "buffer" : 0,
            "byteLength" : 960,
            "byteOffset" : 113348
        },
        {
            "buffer" : 0,
            "byteLength" : 960,
            "byteOffset" : 114308
        },
        {
            "buffer" : 0,
            "byteLength" : 640,
            "byteOffset" : 115268
        },
        {
            "buffer" : 0,
            "byteLength" : 288,
            "byteOffset" : 115908
        },
        {
            "buffer" : 0,
            "byteLength" : 10944,
            "byteOffset" : 116196
        },
        {
            "buffer" : 0,
            "byteLength" : 10944,
            "byteOffset" : 127140
        },
        {
            "buffer" : 0,
            "byteLength" : 7296,
            "byteOffset" : 138084
        },
        {
            "buffer" : 0,
            "byteLength" : 2736,
            "byteOffset" : 145380
        },
        {
            "buffer" : 0,
            "byteLength" : 10944,
            "byteOffset" : 148116
        },
        {
            "buffer" : 0,
            "byteLength" : 10944,
            "byteOffset" : 159060
        },
        {
            "buffer" : 0,
            "byteLength" : 7296,
            "byteOffset" : 170004
        }
    ],
    "buffers" : [
        {
            "byteLength" : 177300,
            "uri" : "data:application/octet-stream;base64,"
        }
    ]
}
